<svg xmlns="http://www.w3.org/2000/svg" width="532" height="512" fill="none" viewBox="0 0 532 512">
    <path fill="#006295" d="M223.718 294.733c.903-6.722 4.361-11.806 7.721-11.355 3.362.452 5.354 6.268 4.45 12.99-.903 6.723-7.721 11.355-7.721 11.355s-5.354-6.268-4.45-12.99zM206.496 303.741c-4.115-5.393-5.265-11.432-2.568-13.489 2.696-2.057 8.217.646 12.332 6.038s2.569 13.489 2.569 13.489-8.218-.646-12.333-6.038zM200.688 322.285c-6.722-.905-11.806-4.361-11.354-7.723.451-3.362 6.267-5.354 12.99-4.45 6.722.903 11.354 7.721 11.354 7.721s-6.267 5.355-12.99 4.452zM209.696 339.508c-5.392 4.115-11.431 5.265-13.488 2.569-2.057-2.697.646-8.218 6.038-12.333 5.392-4.114 13.489-2.569 13.489-2.569s-.646 8.218-6.039 12.333z"/>
    <path fill="#CDC3FF" d="M228.243 345.313c-.904 6.722-4.36 11.806-7.722 11.355-3.362-.452-5.353-6.268-4.45-12.99.903-6.722 7.721-11.355 7.721-11.355s5.354 6.268 4.451 12.99zM245.465 336.307c4.115 5.393 5.265 11.431 2.569 13.489-2.697 2.057-8.218-.646-12.333-6.039-4.115-5.391-2.569-13.488-2.569-13.488s8.218.647 12.333 6.038zM251.272 317.761c6.724.903 11.806 4.359 11.355 7.721-.452 3.362-6.268 5.355-12.99 4.45-6.722-.903-11.355-7.721-11.355-7.721s6.268-5.354 12.99-4.45z"/>
    <path fill="#006295" d="M242.265 300.54c5.393-4.115 11.431-5.265 13.489-2.569 2.057 2.697-.646 8.218-6.039 12.333-5.391 4.114-13.488 2.569-13.488 2.569s.647-8.218 6.038-12.333z"/>
    <path fill="#fff" d="M130 508h-9V62h9v446zM353 508h-12V0h12v508z" opacity=".3"/>
    <path fill="#00AFCB" d="M222.459 432.944c2.459-3.782 4.917-7.566 7.374-11.349 2.849-4.386 5.736-8.859 6.872-13.773 1.072-4.636.533-9.433-.01-14.154l-2.928-25.424c-.575-4.991-1.168-10.049-3.269-14.767-6.056 12.777-12.155 25.679-14.73 39.288-2.544 13.439-1.397 27.808 6.258 39.945-6.886-3.742-13.877-7.357-20.95-10.872 2.017-3.859 4.031-7.718 6.046-11.578 2.39-4.577 4.809-9.242 5.44-14.227.597-4.7-.428-9.449-1.447-14.12l-5.496-25.159c-1.078-4.94-2.181-9.944-4.751-14.502-4.73 13.174-9.489 26.477-10.67 40.237-1.147 13.362 1.346 27.371 9.845 38.836-9.002-4.455-18.138-8.743-27.375-12.895l2.906-10.646c1.333-4.878 2.672-9.848 2.192-14.859-.453-4.725-2.505-9.248-4.536-13.696l-10.94-23.959c-2.147-4.705-4.332-9.468-7.859-13.568-1.726 13.712-3.453 27.556-1.573 41.301 1.61 11.777 6.111 23.615 14.607 33.107-9.193-4.067-18.478-8.006-27.821-11.859l.794-10.223c.388-5.004.768-10.1-.654-14.997-1.342-4.618-4.218-8.825-7.061-12.962-5.104-7.427-10.207-14.854-15.312-22.279-3.005-4.373-6.061-8.803-10.309-12.397.894 13.802 1.814 27.733 6.267 41.091 3.43 10.287 9.167 20.313 17.672 28.249-6.125-2.484-12.27-4.936-18.426-7.362l-1.106-11.843c-.468-5.011-.96-10.111-3.198-14.8-2.111-4.424-5.669-8.258-9.18-12.026l-18.915-20.293c-3.712-3.984-7.484-8.016-12.292-11.08 3.232 13.586 6.511 27.298 13.183 40.025 5.405 10.31 13.284 20.037 23.804 26.992-3.534-1.381-7.07-2.756-10.607-4.127l-6.21-9.174c-2.98-4.401-6.028-8.876-10.434-12.357-4.155-3.283-9.31-5.515-14.388-7.703l-18.553-9.037-27.356-11.786c-5.37-2.313-10.817-4.652-16.7-5.737 9.842 11.236 20.69 21.462 32.284 31.804.09.079.178.159.266.238 17.034 15.268 38.649 24.452 61.464 26.101l.99.069 15.569 7.549c-13.37-2.633-27.672-1.545-40.864 1.635-15.851 3.819-30.427 10.469-44.86 17.07 5.866 1.158 11.95 1.023 17.952.88 10.19-.241 20.382-.48 30.573-.722 5.676-.133 11.443-.281 16.82-1.742 5.699-1.552 10.655-4.497 15.515-7.402l11.159-6.669 26.247 12.724c-14.837-3.164-30.765-1.437-45.145 2.803-15.545 4.584-29.62 11.934-43.555 19.228 5.93.872 11.99.443 17.965.01l30.445-2.2c5.652-.409 11.394-.835 16.654-2.556 5.577-1.825 10.315-5.009 14.961-8.145l11.503-7.77 28.771 13.948c-15.194-1.167-30.533 2.635-43.879 8.716-14.444 6.581-26.917 15.709-39.262 24.761 6.007.085 11.893-1.137 17.699-2.35l29.572-6.184c5.49-1.147 11.065-2.324 15.92-4.719 5.148-2.54 9.213-6.315 13.194-10.031l9.497-8.865 25.526 12.373c-15.311 1.098-29.665 7.239-41.514 15.357-12.705 8.701-22.914 19.612-33.016 30.43 5.906-.838 11.406-2.946 16.827-5.033 9.206-3.542 18.412-7.087 27.619-10.629 5.128-1.974 10.332-3.989 14.562-7.095 4.485-3.292 7.637-7.637 10.718-11.91 2.395-3.322 4.789-6.644 7.185-9.965l17.106 8.291c-13.771 2.689-26.212 9.411-36.351 17.671-11.757 9.579-20.809 21.185-29.762 32.689 5.791-1.253 11.05-3.742 16.234-6.207l26.404-12.553c4.901-2.33 9.877-4.708 13.769-8.105 4.13-3.603 6.824-8.159 9.456-12.64l5.018-8.543 45.688 22.146c-16.155-11.682-33.298-22.225-51.128-31.939zM332.714 350.952c6.152-3.293 3.593 15.091 3.235 16.924-1.832 9.397.23 19.019 1.346 28.48.266 2.254-.101 18.133 3.584 10.796 7.755-15.438-.691-24.419 2.534-41.572.966-5.141 1.65-23.504 6.356-26.742 8.902-6.127 18.581-10.19 29.402-12.668 14.776-3.385 7.19 4.872 3.468 12.396-4.85 9.802-9.037 19.667-10.636 30.342-1.154 7.707-1.367 15.789.34 23.418.107.486 2.485 9.008 4.18 5.661 2.57-5.081 1.175-12.81 2.131-18.295 1.605-9.225 4.172-18.324 6.969-27.317 2.576-8.287 5.424-16.509 8.447-24.677 2.58-6.965 15.042-6.668 24.216-6.369 2.233.072 4.272.144 5.926.112-1.637 2.778-18.144 52.729-10.76 50.916 3.507-.862 5.8-19.088 6.75-21.814 4.025-11.54 6.125-29.403 21.387-29.066 7.471.164 14.936.503 22.388.977 5.778.366-2.887 12.452-3.648 14.281-.635 1.529-6.019 24.855-3.617 23.511 7.438-4.165 10.856-37.638 21.428-36.735 17.184 1.471 34.335 3.494 51.315 6.233 4.99.806-3.24 30.102-4.103 33.14-1.019 3.59-6.82 24.944-11.374 24.871-2.722-.041-24.42-3.404-25.488-1.114-1.305 2.798 14.642 6.069 15.733 6.287 12.156 2.429 8.124 5.163 4.193 15.262-4.994 12.824-5.466 13.393-20.32 11.04-4.603-.728-20.68-7.2-24.864-4.915-2.356 1.285 9.47 6.791 9.786 6.924 3.791 1.592 27.28 6.215 25.674 9.581-1.426 2.99-8.121 20.736-12.599 20.006-12.406-2.022-24.792-4.32-36.912-7.429-3.124-.8-35.443-13.412-26.285-5.15 13.393 12.084 34.374 16.807 52.626 18.171 17.708 1.323-11.854 26.602-17.365 25.162-20.817-5.438-42.627-11.1-61.532-20.83-3.799-1.954-20.523-10.436-10.785-.273 11.808 12.322 30.329 20.379 47.477 24.505 24.389 5.866-21.363 17.322-30.758 18.341-14.358 1.556-27.441-2.609-37.431-11.918-11.456-10.675-19.269-21.887-16.521-36.687 3.221-17.344-18.005-12.826-27.326-25-23.115-30.184-28.552-57.363 11.433-78.766z"/>
    <path fill="#006295" d="M451.972 298.132c-2.474-2.702-2.288-6.898.415-9.371 2.701-2.474 6.897-2.289 9.37.414 2.474 2.702 2.289 6.898-.414 9.371-2.703 2.474-6.899 2.289-9.371-.414zM431.486 310.137c-3.377 3.092-8.623 2.861-11.714-.517-3.091-3.378-2.86-8.624.518-11.715 3.378-3.092 8.623-2.859 11.715.519 3.091 3.378 2.859 8.622-.519 11.713z"/>
    <path fill="#F5F6FB" d="M484.745 167.002c-.572-1.589-1.48-3.125-2.881-4.067-1.972-1.328-4.568-1.273-6.893-.778-8.106 1.725-14.884 8.559-16.545 16.678-.566 2.769-.601 5.69-1.241 8.416-5.45 5.521-10.754 11.18-15.921 16.961 4.324-6.606 4.647-15.672.697-22.527-1.186-2.059-2.881-4.026-5.187-4.604-1.639-.412-3.386-.061-4.951.578-6.755 2.757-10.396 10.754-9.54 18 .84 7.108 5.279 13.375 10.793 17.953-4.337 5.109-8.572 10.305-12.709 15.579.385-5.408-1.206-10.977-4.622-15.201-1.496-1.847-3.479-3.525-5.845-3.735-1.684-.15-3.354.471-4.8 1.347-6.238 3.783-8.581 12.252-6.602 19.274 1.584 5.611 5.442 10.297 10.148 13.821-4.318 5.925-8.524 11.936-12.62 18.02 1.215-6.614-.728-13.82-5.334-18.752-1.622-1.737-3.719-3.271-6.095-3.312-1.69-.03-3.312.709-4.692 1.685-5.954 4.215-7.691 12.83-5.216 19.693 2.177 6.04 7.024 10.768 12.625 13.996l-.301.471c-.227.122-.457.237-.694.343l.391.136c-1.369 2.158-2.725 4.324-4.069 6.496-3.392 5.487-6.693 11.025-9.933 16.601.691-1.983 1.559-3.94 2.13-5.956 2.254-7.974-.628-17.158-7.036-22.414-1.838-1.506-4.118-2.749-6.479-2.475-1.68.194-3.19 1.139-4.429 2.289-5.344 4.967-5.925 13.736-2.564 20.211 3.195 6.158 9.278 10.384 15.821 12.765-5.528 9.665-10.839 19.454-15.968 29.338.719-2.287 1.766-4.521 2.42-6.834 2.255-7.974-.628-17.158-7.035-22.413-1.837-1.507-4.118-2.75-6.48-2.476-1.678.194-3.19 1.14-4.428 2.291-5.344 4.967-5.925 13.734-2.565 20.21 3.256 6.275 9.511 10.541 16.195 12.895-10.247 19.964-19.77 40.306-28.802 60.837-9.858 22.407-19.149 45.058-28.202 67.799-.693 1.739.77 3.759 2.413 4.224 1.956.554 3.54-.696 4.223-2.413 15.861-39.843 32.488-79.426 51.661-117.805 1.22-2.443 2.453-4.88 3.694-7.313 4.4 3.819 9.74 6.573 15.505 6.953 7.279.481 15.078-3.57 17.482-10.458.558-1.596.818-3.359.323-4.975-.698-2.272-2.751-3.863-4.868-4.941-7.03-3.581-16.039-2.803-22.408 1.822 3.431-6.489 6.949-12.934 10.555-19.33 4.27 3.528 9.37 6.034 14.851 6.396 7.28.479 15.079-3.571 17.485-10.458.557-1.596.817-3.359.322-4.975-.697-2.272-2.75-3.864-4.868-4.942-6.134-3.125-13.773-2.931-19.852.242 3.291-5.558 6.655-11.07 10.1-16.53 4.053 3.095 8.778 5.25 13.828 5.584 7.282.479 15.08-3.571 17.485-10.458.557-1.595.817-3.36.322-4.975-.697-2.272-2.75-3.863-4.868-4.943-4.994-2.544-10.988-2.885-16.325-1.213 3.419-5.072 6.919-10.089 10.497-15.052 4.349 3.697 9.585 6.349 15.233 6.721 7.279.481 15.078-3.569 17.484-10.458.556-1.595.816-3.359.321-4.975-.698-2.272-2.749-3.862-4.867-4.941-5.316-2.708-11.765-2.924-17.347-.869 4.769-6.167 9.682-12.223 14.738-18.158 5.178 3.725 11.38 6.166 17.698 5.716 7.277-.519 14.449-5.597 15.89-12.749.334-1.657.35-3.44-.362-4.972-1-2.156-3.251-3.452-5.497-4.231-4.184-1.451-8.8-1.457-13.047-.219 3.463-3.708 6.985-7.361 10.569-10.952 5.037-.17 9.997-1.475 14.084-4.362 5.959-4.207 9.471-12.263 7.005-19.13zM104.964 251.632c-1.151.206-2.303.649-3.108 1.496-1.133 1.191-1.395 2.969-1.326 4.612.24 5.728 4.119 11.141 9.465 13.211 1.824.707 3.812 1.067 5.598 1.819 3.136 4.356 6.383 8.626 9.73 12.818-4.006-3.712-10.153-4.978-15.285-3.077-1.542.572-3.079 1.502-3.74 3.006-.47 1.071-.433 2.303-.177 3.444 1.101 4.927 6.135 8.334 11.176 8.587 4.945.249 9.733-2.057 13.492-5.288 2.984 3.549 6.039 7.037 9.16 10.468-3.645-.887-7.629-.446-10.904 1.397-1.432.806-2.806 1.965-3.222 3.556-.297 1.131-.066 2.341.365 3.429 1.859 4.692 7.366 7.268 12.384 6.729 4.01-.433 7.652-2.523 10.599-5.326 3.544 3.63 7.157 7.193 10.834 10.689-4.371-1.593-9.511-1.099-13.406 1.474-1.374.905-2.661 2.158-2.964 3.775-.214 1.148.1 2.341.608 3.394 2.188 4.549 7.863 6.728 12.83 5.832 4.372-.786 8.157-3.547 11.006-6.995l.286.26c.056.169.108.34.153.513l.139-.251c1.313 1.184 2.634 2.359 3.962 3.526 3.35 2.946 6.747 5.839 10.175 8.692-1.274-.7-2.508-1.518-3.816-2.14-5.18-2.459-11.777-1.553-16.102 2.21-1.24 1.08-2.35 2.492-2.437 4.134-.062 1.168.409 2.308 1.051 3.286 2.771 4.217 8.684 5.626 13.489 4.082 4.571-1.468 8.155-5.129 10.534-9.316 5.955 4.887 12.019 9.638 18.168 14.279-1.476-.754-2.879-1.726-4.382-2.439-5.178-2.459-11.776-1.555-16.101 2.209-1.24 1.079-2.35 2.492-2.437 4.133-.061 1.168.409 2.308 1.052 3.286 2.771 4.219 8.684 5.628 13.489 4.084 4.656-1.497 8.289-5.271 10.666-9.558 12.434 9.296 25.21 18.14 38.172 26.673 14.144 9.311 28.521 18.265 42.988 27.067 1.106.673 2.653-.091 3.16-1.159.604-1.269-.065-2.494-1.157-3.16-25.347-15.42-50.425-31.332-74.391-48.843-1.525-1.115-3.045-2.235-4.562-3.363 3.114-2.562 5.609-5.886 6.534-9.774 1.168-4.909-.694-10.697-5.114-13.133-1.024-.564-2.196-.945-3.356-.794-1.631.213-2.953 1.43-3.933 2.75-3.254 4.381-3.765 10.615-1.346 15.495-4.029-3.09-8.02-6.233-11.966-9.431 2.9-2.506 5.199-5.696 6.078-9.393 1.168-4.911-.694-10.698-5.113-13.133-1.025-.565-2.197-.946-3.358-.794-1.629.213-2.951 1.429-3.932 2.749-2.84 3.823-3.589 9.056-2.128 13.569-3.411-2.887-6.783-5.818-10.109-8.799 2.581-2.407 4.595-5.381 5.406-8.788 1.167-4.911-.694-10.698-5.114-13.133-1.025-.565-2.197-.946-3.357-.794-1.63.213-2.952 1.429-3.933 2.748-2.311 3.114-3.238 7.162-2.713 10.996-3.065-2.917-6.082-5.885-9.055-8.898 3.024-2.539 5.439-5.805 6.345-9.614 1.167-4.91-.694-10.697-5.115-13.134-1.024-.563-2.196-.946-3.356-.794-1.631.213-2.953 1.429-3.933 2.75-2.461 3.313-3.353 7.687-2.597 11.731-3.656-3.965-7.219-8.016-10.682-12.149 3.138-3.103 5.52-7.05 5.943-11.412.485-5.024-2.151-10.502-6.862-12.31-1.092-.42-2.305-.637-3.433-.328-1.587.433-2.729 1.819-3.521 3.26-1.473 2.687-2.01 5.834-1.656 8.875-2.129-2.791-4.214-5.615-6.25-8.475.465-3.455.149-6.988-1.348-10.109-2.183-4.552-7.272-7.877-12.24-6.989z" opacity=".5"/>
    <path fill="#FAA497" d="M80.645 405.692c-6.212 12.723-.821 28.907 12.04 36.15l98.177 55.289c12.861 7.243 28.323 2.8 34.535-9.922 6.212-12.722.82-28.908-12.04-36.151L115.18 395.77c-12.861-7.243-28.323-2.8-34.535 9.922z"/>
    <path fill="#5746A1" d="M225.396 487.209c6.212-12.722.821-28.908-12.04-36.151l-88.823-50.02-22.128 46.279 88.457 49.814c12.86 7.243 28.322 2.8 34.534-9.922z"/>
    <path fill="#5746A1" d="M175.301 456.954l51.356 27.338 21.855-78.523 14.638-43.653c4.436-13.222-3.531-27.6-17.794-32.109-1.071-.339-2.147-.614-3.223-.822-13.257-2.593-26.533 4.37-30.63 16.603l-15.544 46.353-20.658 64.813z"/>
    <path fill="#035C85" d="M399.391 371.223l-6.565 83.47-1.828 23.244-1.709 21.705-.36 4.587-.127 1.612-.397 5.059H205.656V371.223c0-.138 0-.275.003-.413.034-6.658.888-12.608 2.468-17.911.337-1.143.712-2.255 1.118-3.339v-.002c2.216-5.899 5.397-10.929 9.397-15.183 5.349-5.695 12.159-10.005 20.056-13.174.149-.059.3-.119.453-.178 9.142-3.593 19.716-5.672 31.161-6.596l.268-.019c4.824-.381 9.8-.56 14.892-.56h21.191c2.514 0 5.043.044 7.576.132 10.968.388 22.03 1.646 32.386 4.043 13.712 3.172 26.187 8.329 35.557 16.093 10.581 8.76 17.209 20.839 17.209 37.107z"/>
    <path fill="#005075" d="M67.91 506.152c0 3.105 2.52 5.628 5.628 5.628h418.264c1.553 0 2.963-.629 3.98-1.648 1.02-1.021 1.65-2.427 1.65-3.98 0-3.109-2.521-5.628-5.63-5.628H73.538c-1.552 0-2.963.628-3.98 1.649-.823.823-1.393 1.897-1.578 3.101-.047.285-.07.58-.07.878zM29.857 498.901h24.962c3.108 0 5.627 2.519 5.627 5.626 0 3.109-2.52 5.629-5.627 5.629H29.857c-3.108 0-5.627-2.52-5.627-5.629 0-3.107 2.519-5.626 5.627-5.626z"/>
    <path fill="#fff" d="M270.608 315.684l45.701-.344-4.216 180.778-45.745 2.784 4.26-183.218z"/>
    <path fill="#FAA497" d="M305.623 461.609l11.307-2.126 4.465 30.799-18.605.069 2.833-28.742z"/>
    <path fill="#FAA497" d="M305.622 461.611s-25.702-1.192-28.406.675c-2.703 1.868-11.803 26.3-1.431 27.747 10.372 1.447 26.917 1.016 33.47-1.655 6.553-2.67 1.848-26.577-3.633-26.767z"/>
    <path fill="#FAA497" d="M278.852 470.162l-21.456 3.11c-2.022.293-3.849-1.222-3.914-3.248-.053-1.631 1.068-3.073 2.672-3.434l23.288-4.902-.59 8.474z"/>
    <path fill="#FAA497" d="M273.27 470.968s-11.826 2.206-13.074 3.862c-1.247 1.656.943 7.61.943 7.61s11.34-3.244 13.283-3.525c1.943-.282-1.152-7.947-1.152-7.947z"/>
    <path fill="#FAA497" d="M273.718 479.054s-12.441 1.523-13.028 4.313c-.587 2.79 2.662 9.429 2.662 9.429s4.007.67 6.018-.852c2.01-1.52 1.417-3.893 5.894-2.084 4.477 1.811 14.433 4.025 22.475.416l-24.021-11.222z"/>
    <path fill="#FAA497" d="M277.821 478.424s-14.745 1.403-16.682 4.018c-1.938 2.615-.625 10.488 1.584 10.931 2.209.443 6.139-.165 7.571-2.075 1.432-1.91-1.415-4.447-1.415-4.447l8.942-8.427z"/>
    <path fill="#D17962" d="M277.82 478.425c-1.754.261-3.506.52-5.247.839-1.743.305-3.479.64-5.196 1.04-.857.203-1.708.425-2.545.678-.833.259-1.668.543-2.409.941-.369.193-.724.427-.944.693-.235.288-.407.67-.534 1.06-.253.79-.347 1.652-.362 2.509-.017.86.046 1.727.18 2.581.136.852.339 1.697.647 2.488.154.394.335.777.563 1.108.11.169.241.31.375.439.14.112.285.205.431.239.812.161 1.69.188 2.546.116.858-.074 1.717-.234 2.529-.515.803-.287 1.599-.676 2.159-1.304.295-.296.485-.666.531-1.08.05-.41-.039-.839-.194-1.239-.155-.405-.378-.786-.63-1.146-.25-.362-.529-.706-.841-1.021.669.58 1.271 1.262 1.657 2.087.192.41.322.868.296 1.344-.018.474-.225.95-.534 1.299-.29.37-.662.66-1.045.91l-.295.181c-.098.057-.203.106-.304.159-.203.11-.415.191-.625.281-.85.339-1.744.528-2.646.639-.904.106-1.817.115-2.747-.054-.291-.063-.528-.213-.734-.375-.191-.172-.363-.357-.5-.556-.28-.394-.488-.815-.666-1.243-.35-.855-.56-1.744-.713-2.638-.146-.895-.221-1.803-.204-2.715.022-.91.123-1.829.416-2.729.151-.447.345-.891.67-1.291.353-.412.768-.659 1.183-.868.831-.424 1.692-.691 2.554-.943.863-.245 1.734-.442 2.608-.617 3.495-.694 7.031-1.077 10.57-1.297z"/>
    <path fill="#D17962" d="M276.911 471.3c.008-.035-.04-.043-.065-.052-.03-.008-.061-.014-.094-.019-.063-.008-.126-.014-.189-.019-.13-.007-.258-.01-.386-.01-.257-.003-.513 0-.77.009-.513.02-1.025.042-1.537.085-1.022.072-2.04.19-3.05.327-2.016.294-4.019.698-5.908 1.378-.938.35-1.858.744-2.689 1.273-.414.265-.812.549-1.175.871-.384.335-.656.628-.817 1.042-.172.403-.229.877-.214 1.358.016.482.081.978.192 1.469.214.987.556 1.96.896 2.938-.56-.872-1.047-1.797-1.406-2.792-.172-.499-.32-1.018-.384-1.564-.061-.542-.051-1.123.133-1.692.092-.281.232-.555.411-.8.189-.253.374-.434.571-.628.393-.38.822-.717 1.275-1.009.906-.584 1.875-1.047 2.877-1.393 2.001-.697 4.082-1.053 6.16-1.196 1.04-.076 2.082-.085 3.121-.045.519.026 1.038.054 1.555.117.258.031.517.065.773.111.128.025.255.05.382.082.063.016.126.032.188.055.031.01.062.022.091.036.025.014.074.031.059.068z"/>
    <path fill="#005075" d="M424.606 467.384c-2.712-13.896-16.77-23.561-31.398-21.588l-86.934 13.63 3.201 34.473 93.557 2.217c14.627-1.973 24.286-14.838 21.574-28.732z"/>
    <path fill="#005075" d="M370.138 485.207l42.502-.593c8.044-.113 13.919-7.641 12.072-15.471l-15.116-64.078-8.222-45.303c-2.492-13.721-16.402-22.475-31.073-19.549-1.1.219-2.175.499-3.219.833-12.864 4.122-21.138 16.622-18.829 29.315l8.733 48.104 13.152 66.742zM270.58 314.407l-2.476 115.216-26.426-70.211 8.846-.439-7.231-6.324-4.142-31.628c9.142-3.592 19.716-5.672 31.162-6.595.088-.006.178-.014.267-.019zM334.931 358.383l9.074.968-30.37 70.66 3.166-116.188c10.95.744 21.965 2.362 32.238 5.094l-6.302 33.383-7.806 6.083z"/>
    <path fill="#FEFEFF" d="M287.523 186.071h-23.617v-8.555h14.101l9.516 8.555z"/>
    <path fill="#FEFEFF" d="M254.476 235.288l.144-9.231c.135-8.572 4.032-19.001 10.171-27.214 6.516-8.719 14.647-13.721 22.308-13.721l17.03-.431c3.066-.078 5.456-.047 5.226-2.898l.015 1.132c-.127-2.847-2.747-3.987-5.596-3.89l-16.712-1.185c-10.561 0-20.858 5.606-29.064 16.584-7.137 9.552-11.494 21.331-11.653 31.51l-.146 9.231 8.277.113z"/>
    <path fill="#241F3F" d="M260.795 244.625h1.498V209.45l-11.899-11.947-.947 35.774c0 6.268 5.08 11.348 11.348 11.348z"/>
    <path fill="#FFF7FA" d="M241.655 248.299c.884 10.563 5.089 18.834 9.392 18.475 4.302-.36 7.074-9.215 6.19-19.778-.884-10.564-5.089-18.835-9.39-18.476-4.303.36-7.075 9.215-6.192 19.779z"/>
    <path fill="#005075" d="M241.656 248.3c.641 7.651 2.264 13.763 3.628 13.649 1.363-.115 1.948-6.409 1.308-14.063-.641-7.651-2.264-13.762-3.628-13.647-1.363.113-1.948 6.409-1.308 14.061z"/>
    <path fill="#FD9D85" d="M316.31 313.659v.358c0 12.462-9.998 22.652-22.499 22.844-.527.009-1.046 0-1.564-.031-11.904-.614-21.453-10.372-21.638-22.469l-.014-.855-.122-7.932-.023-1.605-.069-4.447-.153-9.875-.152-10.055 1.39-.02 18.246-.281 26.063-.402v.021l.111 7.316.15 9.572.099 6.486.007.482.112 7.168.056 3.725z"/>
    <path fill="#FC856B" d="M270.384 309.367h45.757v-12.152h-45.757v12.152z"/>
    <path fill="#FD9D85" d="M292.909 305.59h-2.956c-19.98 0-36.178-16.198-36.178-36.179v-57.796h75.311v57.796c0 19.981-16.197 36.179-36.177 36.179z"/>
    <path fill="#241F3F" d="M337.651 247.199c-8.615 0-15.599-6.984-15.599-15.599v-2.447c0-3.35-2.716-6.066-6.067-6.066h-51.08c-9.319 0-16.874-7.555-16.874-16.874v-8.234c0-10.561 6.295-20.105 16.001-24.266l1.128-.484-.1 4.034c-.09 3.547 3.778 5.793 6.815 3.956l6.132-3.707v3.466c0 2.816 2.282 5.097 5.097 5.097l39.101-.457c8.643 0 18.505 11.136 18.505 19.778v38.794c0 1.683-1.378 3.037-3.059 3.009z"/>
    <path fill="#FD9D85" d="M324.65 252.144c0 6.505 3.63 11.777 8.107 11.777 4.476 0 8.106-5.272 8.106-11.777 0-6.503-3.63-11.775-8.106-11.775-4.477 0-8.107 5.272-8.107 11.775z"/>
    <path fill="#B86054" d="M335.357 256.43c-.423 0-.765-.343-.765-.765v-1.224c0-2.613-2.127-4.741-4.741-4.741-.422 0-.765-.341-.765-.763 0-.424.343-.765.765-.765 3.457 0 6.27 2.812 6.27 6.269v1.224c0 .422-.342.765-.764.765z"/>
    <path fill="#FEFEFF" d="M314.498 286.63c-.794 0-1.582-.336-2.14-.986-1.01-1.181-.872-2.957.309-3.967l22.915-19.607c1.18-1.01 2.956-.872 3.968.309 1.01 1.181.872 2.957-.309 3.968l-22.915 19.606c-.529.453-1.181.677-1.828.677zM332.657 240.432l-.146-9.904c-.134-9.198-4.031-20.388-10.169-29.201-6.517-9.358-14.648-14.724-22.31-14.724l-17.03-.462c-3.066-.084-5.44-2.713-5.21-5.772l.214-2.853 22.026.81c10.562 0 20.896 6.489 29.101 18.27 7.139 10.249 11.495 22.887 11.655 33.811l.144 9.905-8.275.12z"/>
    <path fill="#FFF7FA" d="M351.262 254.28c-1.73 10.459-8.499 18.049-15.121 16.955-6.623-1.096-10.59-10.461-8.861-20.918 1.728-10.459 8.499-18.049 15.121-16.955 6.622 1.094 10.589 10.46 8.861 20.918z"/>
    <path fill="#005075" d="M354.698 254.847c-1.253 7.577-6.158 13.075-10.953 12.281-4.798-.793-7.671-7.577-6.42-15.152 1.253-7.576 6.156-13.075 10.954-12.282 4.797.794 7.67 7.578 6.419 15.153zM320.211 284.862l-10.11 6.814c-1.043.703-2.459.426-3.162-.617l-3.186-4.726c-.701-1.043-.426-2.459.617-3.161l10.11-6.815c1.044-.703 2.459-.426 3.162.617l3.185 4.726c.703 1.043.427 2.459-.616 3.162z"/>
    <path fill="#fff" d="M212.086 199.887H148.52v-37.372h63.566v37.372z"/>
    <path fill="#D6D7FF" d="M180.302 182.856c-.272 0-.544-.068-.791-.202l-31.783-17.288c-.803-.437-1.1-1.443-.663-2.246.436-.803 1.442-1.1 2.245-.663l30.96 16.841 30.976-18.21c.788-.465 1.803-.2 2.266.586.463.789.2 1.803-.588 2.267l-31.783 18.685c-.259.153-.549.23-.839.23z"/>
    <path fill="#00AFCB" d="M229.45 173.362h-28.77c-1.626 0-2.942-1.318-2.942-2.941v-12.337c0-1.625 1.316-2.941 2.942-2.941h28.77c1.623 0 2.941 1.316 2.941 2.941v12.337c0 1.623-1.318 2.941-2.941 2.941z"/>
    <path fill="#5746A1" d="M208.463 163.008c-.281 0-.586.037-.908.112v-.694h2.193c.384 0 .663-.084.854-.256.195-.176.297-.413.297-.685 0-.277-.102-.515-.298-.691-.19-.172-.469-.256-.853-.256h-4.081v3.872c0 .288.088.531.265.721.282.305.694.413 1.167.16.942-.477 1.693-.547 2.131-.085.203.213.302.51.302.908 0 .395-.097.67-.294.843-.143.125-.486.274-1.302.274-.365 0-.663-.034-.89-.1-.135-.04-.267-.112-.395-.218-.485-.396-.993-.335-1.333.004-.182.184-.279.412-.279.662 0 .378.209.705.618.966.587.381 1.379.574 2.357.574 1.124 0 1.98-.271 2.546-.806.57-.538.86-1.282.86-2.21 0-.899-.284-1.647-.841-2.222-.562-.58-1.274-.873-2.116-.873zM217.861 164.482c.167-.182.3-.377.402-.581.159-.318.238-.663.238-1.029 0-.697-.266-1.302-.793-1.796-.519-.488-1.208-.735-2.05-.735-.867 0-1.606.211-2.195.628-.458.323-.69.685-.69 1.072 0 .261.096.495.276.676.181.181.411.277.665.277.157 0 .305-.034.43-.1.094-.047.194-.131.317-.266.249-.273.611-.405 1.108-.405.376 0 .653.069.82.207.2.167.224.318.224.418 0 .1-.031.199-.094.299-.069.106-.156.188-.267.248-.12.066-.238.106-.351.116-.05.005-.257.005-.621.005-.269 0-.507.095-.688.276-.181.181-.276.415-.276.677 0 .253.089.478.257.651.169.175.4.272.687.29.485.032.707.087.804.125.26.107.46.251.612.441.138.175.206.346.206.521 0 .22-.097.375-.313.5-.184.107-.572.234-1.384.234-.391 0-.699-.025-.905-.074-.117-.029-.248-.094-.398-.197-.431-.276-.9-.204-1.205.112-.176.182-.269.416-.269.675 0 .242.096.591.558.881.536.331 1.294.491 2.314.491.771 0 1.411-.105 1.9-.31.511-.215.909-.539 1.181-.964.272-.42.409-.886.409-1.384 0-.457-.104-.879-.31-1.251-.147-.266-.347-.509-.599-.728zM222.163 165.963c.215-.203.478-.302.804-.302.327 0 .589.099.805.302.21.198.312.406.312.635 0 .102-.024.255-.231.421-.177.141-.475.212-.886.212-.407 0-.704-.072-.883-.214-.209-.164-.233-.311-.233-.407 0-.237.102-.449.312-.647zm.793-3.734c.32 0 .561.076.738.235.168.15.245.318.245.528 0 .213-.077.384-.245.534-.177.159-.418.235-.738.235-.325 0-.57-.076-.746-.235-.168-.15-.246-.321-.246-.534 0-.21.078-.378.246-.528.176-.159.421-.235.746-.235zm2.744 3.14c-.128-.25-.302-.484-.519-.696.183-.204.331-.42.438-.647.159-.331.24-.687.24-1.057 0-.719-.277-1.344-.822-1.859-.54-.51-1.236-.769-2.07-.769-.833 0-1.529.259-2.07.769-.544.515-.821 1.14-.821 1.859 0 .367.081.722.243 1.053.109.225.256.442.438.648-.219.213-.394.447-.522.699-.181.354-.272.748-.272 1.17 0 .464.116.9.347 1.296.234.404.599.725 1.081.953.465.219.991.331 1.565.331.572 0 1.101-.11 1.573-.33.491-.227.86-.547 1.096-.95.231-.394.347-.832.347-1.3 0-.422-.091-.816-.272-1.17z"/>
    <path fill="#fff" d="M348.773 81.813h-70.277c-6.387 0-11.563 5.177-11.563 11.562v26.34c0 6.386 5.176 11.563 11.563 11.563h5.303l5.196 8.659c1.312 2.186 4.499 2.134 5.735-.096l4.755-8.563h49.288c6.386 0 11.562-5.177 11.562-11.563v-26.34c0-6.385-5.176-11.562-11.562-11.562z"/>
    <path fill="#D6D7FF" d="M296.999 104.974c0 3.701-3.002 6.703-6.705 6.703-3.703 0-6.704-3.002-6.704-6.703 0-3.703 3.001-6.705 6.704-6.705s6.705 3.002 6.705 6.705z"/>
    <path fill="#00AFCB" d="M320.339 104.974c0 3.701-3.002 6.703-6.705 6.703-3.703 0-6.704-3.002-6.704-6.703 0-3.703 3.001-6.705 6.704-6.705s6.705 3.002 6.705 6.705z"/>
    <path fill="#D6D7FF" d="M343.679 104.974c0 3.701-3.001 6.703-6.704 6.703-3.702 0-6.704-3.002-6.704-6.703 0-3.703 3.002-6.705 6.704-6.705 3.703 0 6.704 3.002 6.704 6.705z"/>
    <path fill="#FEFEFF" d="M430.094 433.188l-3.74 43.36-1.499 17.373c-.279 3.247-.739 5.945-4.632 5.892l-12.231-.161c-.967-.014-2.459.095-4.203.206-2.173.136-4.737.273-7.167.173-4.544-.19-8.616-1.207-8.774-4.607-.264-5.74-.531-11.48-.795-17.222l-1.546-33.412c-.169-3.668-.338-7.336-.509-11.005-.019-.399-.036-.799-.056-1.199l45.152.602z"/>
    <path fill="#F0AB85" d="M385.854 450.064l1.545 32.773 38.313.511 2.83-32.547c-9.936.003-32.985-.538-42.688-.737z"/>
    <path fill="#705B58" d="M420.86 420.273l-7.403-.098.013-1.003c.016-1.26.889-2.272 1.947-2.257l3.571.047c1.058.014 1.903 1.048 1.886 2.308l-.014 1.003zM431.029 434.88l-47.098-.628c-.976-.012-1.754-.966-1.739-2.128l.036-2.693c.015-1.17.824-2.107 1.806-2.094l47.131.628c.969.012 1.741.957 1.726 2.112l-.035 2.685c-.016 1.184-.834 2.131-1.827 2.118z"/>
    <path fill="#FEFEFF" d="M392.426 434.609h18.246v-.244h-18.246v.244z"/>
    <path fill="#836EB4" d="M385.022 434.267l-1.376-.017c-.819-.011-1.469-.964-1.454-2.126-.015 1.162.763 2.117 1.74 2.129l1.09.014z"/>
    <path fill="#FEFEFF" d="M392.426 434.365l-7.405-.098 7.398.098h.007z"/>
    <path fill="#836EB4" d="M382.229 429.432c.014-1.163.686-2.099 1.504-2.099h.015l6.275.084-5.988-.079-.021-.002c-.972 0-1.771.934-1.785 2.096z"/>
    <path fill="#967E7B" d="M421.491 434.757l-7.479-.1 6.91.093.569.007zm-7.479-.1l-3.34-.044-.883-.012 4.223.056zm-21.594-.288l-7.397-.098-1.09-.015c-.976-.012-1.754-.966-1.739-2.128l.036-2.693c.015-1.162.814-2.096 1.786-2.096l.02.002 5.989.079 2.492.033c-.176.001-.345.045-.503.125-1.292-.024-2.695-.043-3.526-.043-.428 0-.705.004-.737.018 1.75.029 3.127.051 4.188.067-.532.319-.911 1.062-.923 1.931l-.035 2.693c-.017 1.156.628 2.103 1.439 2.125z"/>
    <path fill="#574341" d="M430.611 434.873h-.033l-9.087-.12 1.642.022h.001l-2.212-.03c.819-.311 1.403-1.067 1.415-1.96l.035-2.687c.016-1.153-.954-2.101-2.164-2.117l-25.2-.336c.049.003.006.006-.153.006-.345 0-1.238-.01-2.917-.035.025-.015.05-.03.075-.043l.88.018c.206.004.406.007.595.012l37.23.355h.018c1.207.021 2.17.967 2.156 2.118l-.036 2.685c-.016 1.174-1.019 2.112-2.245 2.112z"/>
    <path fill="#745E5B" d="M423.134 434.775h-.002l-1.641-.022-.569-.007 2.212.029zm-31.197-7.159c-1.061-.016-2.438-.038-4.188-.067.032-.014.309-.018.737-.018.831 0 2.234.019 3.526.043l-.075.042z"/>
    <path fill="#705B58" d="M425.154 427.885l-35.131-.467.047-3.524c.033-2.447 1.724-4.409 3.779-4.381l27.68.369c2.06.028 3.704 2.04 3.672 4.495l-.047 3.508z"/>
    <path fill="#836EB4" d="M390.07 423.893c.033-2.44.744-4.411 1.593-4.411h.007l2.164.03h-.017l-.211-.003h-.008c-.056 0-.11.009-.164.025-1.864.22-3.334 2.079-3.364 4.359z"/>
    <path fill="#967E7B" d="M391.957 427.441l-1.934-.025.047-3.523c.03-2.28 1.501-4.139 3.364-4.359-.774.235-1.399 2.104-1.43 4.384l-.047 3.523zm11.186-7.806h-.001l-.164-.001.165.001zm-.165-.001l-9.16-.122h.016l9.144.122z"/>
    <path fill="#9681AB" d="M425.154 427.885l-3.355-.044 3.355.044.047-3.508c.031-2.364-1.493-4.318-3.446-4.484 1.953.166 3.477 2.12 3.446 4.484l-.047 3.508z"/>
    <path fill="#503D3B" d="M425.154 427.885l-3.355-.044.047-3.51c.033-2.454-1.612-4.466-3.672-4.494l3.355.045c.076 0 .151.005.226.011 1.953.166 3.477 2.12 3.446 4.484l-.047 3.508z"/>
    <path fill="#00AFCB" d="M95.374 215.22l-7.186-4.025c-.582-.325-1.298.101-1.29.768.007.483-.383.877-.866.877H73.128c-.478 0-.866.389-.866.868v4.624c0 .479.388.866.866.866h13.01c.474 0 .86.382.866.856l.003.144c.008.666.736 1.074 1.309.734l7.078-4.212c.573-.341.562-1.175-.02-1.5zM72.705 227.009l7.185-4.024c.582-.326 1.299.1 1.29.768-.006.482.384.878.867.878H94.95c.478 0 .866.387.866.866v4.624c0 .479-.388.867-.866.867H81.94c-.475 0-.86.381-.867.855l-.002.144c-.008.668-.736 1.075-1.31.734l-7.077-4.212c-.573-.34-.562-1.174.02-1.5z"/>
    <path fill="#fff" d="M68.243 253.014c.003 1.565-1.261 2.84-2.83 2.843l-1.812.007-5.406.017c-6.446.016-11.68-3.676-11.694-8.248l-.139-46.508c-.016-4.572 5.198-8.298 11.644-8.317l5.595-.016 1.527-.004h.013c1.612 0 2.923 1.309 2.93 2.926l.033 11.539c.007 1.619-1.305 2.937-2.927 2.943l-1.576.004-6.055.019.222 28.257 5.833-.019 1.762-.008c1.566-.003 2.84 1.262 2.844 2.828l.036 11.737z"/>
    <path fill="#D6D7FF" d="M65.177 210.192l-1.575.005v-17.413h1.539c1.612 0 2.923 1.309 2.93 2.927l.033 11.538c.007 1.62-1.304 2.937-2.927 2.943zM68.243 253.01c.004 1.565-1.261 2.84-2.83 2.843l-1.811.007v-17.408l1.76-.007c1.567-.003 2.841 1.262 2.845 2.828l.036 11.737z"/>
    <path fill="#00AFCB" d="M135.052 500.695h204.699l-1.244-9.259h-251.7l48.245 9.259z"/>
    <path fill="#00AFCB" d="M97.457 499.911l175.95.829-20.854-118.412c-.908-6.866-5.279-10.515-11.413-10.515H89.653c-7.876 0-13.839 6.381-12.46 14.136l20.264 113.962z"/>
    <path fill="#F0F6F9" d="M265.496 500.671H88.299l-9.46-53.194-10.805-60.769c-1.378-7.756 4.585-14.871 12.461-14.871H231.98c6.136 0 11.39 4.4 12.463 10.438l21.053 118.396z"/>
    <path fill="#005075" d="M166.665 450.628c-7.362 0-13.328-5.968-13.328-13.328 0-7.362 5.966-13.33 13.328-13.33 7.361 0 13.329 5.968 13.329 13.33 0 7.36-5.968 13.328-13.329 13.328z"/>
</svg>
